<mxfile host="Electron" modified="2024-09-07T03:46:53.307Z" agent="Mozilla/5.0 (Windows NT 10.0; Win64; x64) AppleWebKit/537.36 (KHTML, like Gecko) draw.io/22.0.3 Chrome/114.0.5735.289 Electron/25.8.4 Safari/537.36" etag="ike6JRtTN4r1u9ohbl50" version="22.0.3" type="device">
  <diagram name="PÃ¡gina-1" id="JL-isWN5o1kqE-3XuDRX">
    <mxGraphModel dx="1276" dy="606" grid="1" gridSize="10" guides="1" tooltips="1" connect="1" arrows="1" fold="1" page="1" pageScale="1" pageWidth="827" pageHeight="1169" math="0" shadow="0">
      <root>
        <mxCell id="0" />
        <mxCell id="1" parent="0" />
        <mxCell id="1wJC1M_D3XjIeMe5mtf7-1" value="ClienteCorreo&lt;br&gt;" style="swimlane;fontStyle=1;align=center;verticalAlign=top;childLayout=stackLayout;horizontal=1;startSize=26;horizontalStack=0;resizeParent=1;resizeParentMax=0;resizeLast=0;collapsible=1;marginBottom=0;whiteSpace=wrap;html=1;" parent="1" vertex="1">
          <mxGeometry x="100" y="70" width="280" height="240" as="geometry" />
        </mxCell>
        <mxCell id="1wJC1M_D3XjIeMe5mtf7-2" value="&amp;nbsp;" style="text;strokeColor=none;fillColor=none;align=left;verticalAlign=top;spacingLeft=4;spacingRight=4;overflow=hidden;rotatable=0;points=[[0,0.5],[1,0.5]];portConstraint=eastwest;whiteSpace=wrap;html=1;" parent="1wJC1M_D3XjIeMe5mtf7-1" vertex="1">
          <mxGeometry y="26" width="280" height="26" as="geometry" />
        </mxCell>
        <mxCell id="1wJC1M_D3XjIeMe5mtf7-3" value="" style="line;strokeWidth=1;fillColor=none;align=left;verticalAlign=middle;spacingTop=-1;spacingLeft=3;spacingRight=3;rotatable=0;labelPosition=right;points=[];portConstraint=eastwest;strokeColor=inherit;" parent="1wJC1M_D3XjIeMe5mtf7-1" vertex="1">
          <mxGeometry y="52" width="280" height="8" as="geometry" />
        </mxCell>
        <mxCell id="1wJC1M_D3XjIeMe5mtf7-4" value="+ eliminarContacto(Contacto) : void&lt;br&gt;+ cantidadContactos() : int&lt;br&gt;+ cantidadCorreosEnviados() : int&lt;br&gt;+ agregarCorreosEnviados(Correo) : void&lt;br&gt;+ cantidadCorreosRecibidos() : int&lt;br&gt;+ agregarCorreosRecibidos(Correo) : void&lt;br&gt;+ agregarContacto(Contacto) : void&lt;br&gt;+ cantidadCorreos() : int&lt;br&gt;+ cantidadCorreosNoLeidos() : int" style="text;strokeColor=none;fillColor=none;align=left;verticalAlign=top;spacingLeft=4;spacingRight=4;overflow=hidden;rotatable=0;points=[[0,0.5],[1,0.5]];portConstraint=eastwest;whiteSpace=wrap;html=1;" parent="1wJC1M_D3XjIeMe5mtf7-1" vertex="1">
          <mxGeometry y="60" width="280" height="180" as="geometry" />
        </mxCell>
        <mxCell id="1wJC1M_D3XjIeMe5mtf7-5" value="Correo&lt;br&gt;" style="swimlane;fontStyle=1;align=center;verticalAlign=top;childLayout=stackLayout;horizontal=1;startSize=26;horizontalStack=0;resizeParent=1;resizeParentMax=0;resizeLast=0;collapsible=1;marginBottom=0;whiteSpace=wrap;html=1;" parent="1" vertex="1">
          <mxGeometry x="520" y="170" width="230" height="170" as="geometry" />
        </mxCell>
        <mxCell id="1wJC1M_D3XjIeMe5mtf7-6" value="- asunto : String&lt;br&gt;- texto : String&lt;br&gt;- leido : bool" style="text;strokeColor=none;fillColor=none;align=left;verticalAlign=top;spacingLeft=4;spacingRight=4;overflow=hidden;rotatable=0;points=[[0,0.5],[1,0.5]];portConstraint=eastwest;whiteSpace=wrap;html=1;" parent="1wJC1M_D3XjIeMe5mtf7-5" vertex="1">
          <mxGeometry y="26" width="230" height="54" as="geometry" />
        </mxCell>
        <mxCell id="1wJC1M_D3XjIeMe5mtf7-7" value="" style="line;strokeWidth=1;fillColor=none;align=left;verticalAlign=middle;spacingTop=-1;spacingLeft=3;spacingRight=3;rotatable=0;labelPosition=right;points=[];portConstraint=eastwest;strokeColor=inherit;" parent="1wJC1M_D3XjIeMe5mtf7-5" vertex="1">
          <mxGeometry y="80" width="230" height="8" as="geometry" />
        </mxCell>
        <mxCell id="1wJC1M_D3XjIeMe5mtf7-8" value="+ agregarDestinatario(Contacto) : void&lt;br&gt;+ eliminarDestinatario(Contacto) : void&lt;br&gt;+ noFueLeido() : int&lt;br&gt;+ fueLeido(): int" style="text;strokeColor=none;fillColor=none;align=left;verticalAlign=top;spacingLeft=4;spacingRight=4;overflow=hidden;rotatable=0;points=[[0,0.5],[1,0.5]];portConstraint=eastwest;whiteSpace=wrap;html=1;" parent="1wJC1M_D3XjIeMe5mtf7-5" vertex="1">
          <mxGeometry y="88" width="230" height="82" as="geometry" />
        </mxCell>
        <mxCell id="1wJC1M_D3XjIeMe5mtf7-9" value="Cuenta&lt;br&gt;" style="swimlane;fontStyle=1;align=center;verticalAlign=top;childLayout=stackLayout;horizontal=1;startSize=26;horizontalStack=0;resizeParent=1;resizeParentMax=0;resizeLast=0;collapsible=1;marginBottom=0;whiteSpace=wrap;html=1;" parent="1" vertex="1">
          <mxGeometry x="170" y="410" width="200" height="134" as="geometry" />
        </mxCell>
        <mxCell id="1wJC1M_D3XjIeMe5mtf7-10" value="- nombre : String&lt;br&gt;- direccionMail : String&lt;br&gt;- direccionServerEntrada : String&lt;br&gt;- direccionServerSalida : String" style="text;strokeColor=none;fillColor=none;align=left;verticalAlign=top;spacingLeft=4;spacingRight=4;overflow=hidden;rotatable=0;points=[[0,0.5],[1,0.5]];portConstraint=eastwest;whiteSpace=wrap;html=1;" parent="1wJC1M_D3XjIeMe5mtf7-9" vertex="1">
          <mxGeometry y="26" width="200" height="74" as="geometry" />
        </mxCell>
        <mxCell id="1wJC1M_D3XjIeMe5mtf7-11" value="" style="line;strokeWidth=1;fillColor=none;align=left;verticalAlign=middle;spacingTop=-1;spacingLeft=3;spacingRight=3;rotatable=0;labelPosition=right;points=[];portConstraint=eastwest;strokeColor=inherit;" parent="1wJC1M_D3XjIeMe5mtf7-9" vertex="1">
          <mxGeometry y="100" width="200" height="8" as="geometry" />
        </mxCell>
        <mxCell id="1wJC1M_D3XjIeMe5mtf7-12" value="+ method(type): type" style="text;strokeColor=none;fillColor=none;align=left;verticalAlign=top;spacingLeft=4;spacingRight=4;overflow=hidden;rotatable=0;points=[[0,0.5],[1,0.5]];portConstraint=eastwest;whiteSpace=wrap;html=1;" parent="1wJC1M_D3XjIeMe5mtf7-9" vertex="1">
          <mxGeometry y="108" width="200" height="26" as="geometry" />
        </mxCell>
        <mxCell id="1wJC1M_D3XjIeMe5mtf7-13" value="Contacto" style="swimlane;fontStyle=1;align=center;verticalAlign=top;childLayout=stackLayout;horizontal=1;startSize=26;horizontalStack=0;resizeParent=1;resizeParentMax=0;resizeLast=0;collapsible=1;marginBottom=0;whiteSpace=wrap;html=1;" parent="1" vertex="1">
          <mxGeometry x="530" y="400" width="160" height="144" as="geometry" />
        </mxCell>
        <mxCell id="1wJC1M_D3XjIeMe5mtf7-14" value="- nombre : String&lt;br&gt;- direccionMail : String" style="text;strokeColor=none;fillColor=none;align=left;verticalAlign=top;spacingLeft=4;spacingRight=4;overflow=hidden;rotatable=0;points=[[0,0.5],[1,0.5]];portConstraint=eastwest;whiteSpace=wrap;html=1;" parent="1wJC1M_D3XjIeMe5mtf7-13" vertex="1">
          <mxGeometry y="26" width="160" height="84" as="geometry" />
        </mxCell>
        <mxCell id="1wJC1M_D3XjIeMe5mtf7-15" value="" style="line;strokeWidth=1;fillColor=none;align=left;verticalAlign=middle;spacingTop=-1;spacingLeft=3;spacingRight=3;rotatable=0;labelPosition=right;points=[];portConstraint=eastwest;strokeColor=inherit;" parent="1wJC1M_D3XjIeMe5mtf7-13" vertex="1">
          <mxGeometry y="110" width="160" height="8" as="geometry" />
        </mxCell>
        <mxCell id="1wJC1M_D3XjIeMe5mtf7-16" value="+ method(type): type" style="text;strokeColor=none;fillColor=none;align=left;verticalAlign=top;spacingLeft=4;spacingRight=4;overflow=hidden;rotatable=0;points=[[0,0.5],[1,0.5]];portConstraint=eastwest;whiteSpace=wrap;html=1;" parent="1wJC1M_D3XjIeMe5mtf7-13" vertex="1">
          <mxGeometry y="118" width="160" height="26" as="geometry" />
        </mxCell>
        <mxCell id="BBbDEeIEV0eQ7GlVor1x-2" value="- contactos" style="endArrow=open;endSize=12;dashed=1;html=1;rounded=0;entryX=0;entryY=0.5;entryDx=0;entryDy=0;" edge="1" parent="1" source="1wJC1M_D3XjIeMe5mtf7-4" target="1wJC1M_D3XjIeMe5mtf7-14">
          <mxGeometry width="160" relative="1" as="geometry">
            <mxPoint x="334" y="370" as="sourcePoint" />
            <mxPoint x="494" y="370" as="targetPoint" />
          </mxGeometry>
        </mxCell>
        <mxCell id="BBbDEeIEV0eQ7GlVor1x-3" value="- recibidos" style="endArrow=open;endSize=12;dashed=1;html=1;rounded=0;entryX=0;entryY=0.5;entryDx=0;entryDy=0;" edge="1" parent="1" source="1wJC1M_D3XjIeMe5mtf7-4" target="1wJC1M_D3XjIeMe5mtf7-6">
          <mxGeometry width="160" relative="1" as="geometry">
            <mxPoint x="329" y="232" as="sourcePoint" />
            <mxPoint x="530" y="390" as="targetPoint" />
          </mxGeometry>
        </mxCell>
        <mxCell id="BBbDEeIEV0eQ7GlVor1x-5" value="- enviados" style="endArrow=open;endSize=12;dashed=1;html=1;rounded=0;exitX=0.995;exitY=0.352;exitDx=0;exitDy=0;exitPerimeter=0;entryX=-0.02;entryY=0.173;entryDx=0;entryDy=0;entryPerimeter=0;" edge="1" parent="1" source="1wJC1M_D3XjIeMe5mtf7-4" target="1wJC1M_D3XjIeMe5mtf7-5">
          <mxGeometry width="160" relative="1" as="geometry">
            <mxPoint x="390" y="120" as="sourcePoint" />
            <mxPoint x="600" y="210" as="targetPoint" />
          </mxGeometry>
        </mxCell>
        <mxCell id="BBbDEeIEV0eQ7GlVor1x-6" value="- cuenta" style="endArrow=open;endSize=12;dashed=1;html=1;rounded=0;entryX=0;entryY=0.5;entryDx=0;entryDy=0;exitX=0;exitY=0.5;exitDx=0;exitDy=0;" edge="1" parent="1" source="1wJC1M_D3XjIeMe5mtf7-4" target="1wJC1M_D3XjIeMe5mtf7-10">
          <mxGeometry width="160" relative="1" as="geometry">
            <mxPoint x="60" y="320" as="sourcePoint" />
            <mxPoint x="251" y="378" as="targetPoint" />
            <Array as="points">
              <mxPoint x="40" y="220" />
              <mxPoint x="40" y="473" />
            </Array>
          </mxGeometry>
        </mxCell>
        <mxCell id="BBbDEeIEV0eQ7GlVor1x-8" value="- contacto" style="endArrow=open;endSize=12;dashed=1;html=1;rounded=0;entryX=1.017;entryY=0.307;entryDx=0;entryDy=0;exitX=1.005;exitY=0.866;exitDx=0;exitDy=0;exitPerimeter=0;entryPerimeter=0;" edge="1" parent="1" source="1wJC1M_D3XjIeMe5mtf7-6" target="1wJC1M_D3XjIeMe5mtf7-14">
          <mxGeometry width="160" relative="1" as="geometry">
            <mxPoint x="909.69" y="152" as="sourcePoint" />
            <mxPoint x="1110.69" y="310" as="targetPoint" />
            <Array as="points">
              <mxPoint x="800" y="243" />
              <mxPoint x="800" y="450" />
            </Array>
          </mxGeometry>
        </mxCell>
        <mxCell id="BBbDEeIEV0eQ7GlVor1x-9" value="- destinatario" style="endArrow=open;endSize=12;dashed=1;html=1;rounded=0;entryX=1;entryY=0.881;entryDx=0;entryDy=0;exitX=1;exitY=0.5;exitDx=0;exitDy=0;entryPerimeter=0;" edge="1" parent="1" source="1wJC1M_D3XjIeMe5mtf7-6" target="1wJC1M_D3XjIeMe5mtf7-14">
          <mxGeometry width="160" relative="1" as="geometry">
            <mxPoint x="760.2" y="310" as="sourcePoint" />
            <mxPoint x="772.2" y="449" as="targetPoint" />
            <Array as="points">
              <mxPoint x="880" y="223" />
              <mxPoint x="880" y="500" />
            </Array>
          </mxGeometry>
        </mxCell>
      </root>
    </mxGraphModel>
  </diagram>
</mxfile>
